<?xml version="1.0" encoding="UTF-8" standalone="no"?>
<!-- Created with Inkscape (http://www.inkscape.org/) -->

<svg
   width="128"
   height="128"
   viewBox="0 0 33.866665 33.866667"
   version="1.1"
   id="svg5"
   inkscape:version="1.1.2 (0a00cf5339, 2022-02-04)"
   sodipodi:docname="snoopgod.svg"
   xmlns:inkscape="http://www.inkscape.org/namespaces/inkscape"
   xmlns:sodipodi="http://sodipodi.sourceforge.net/DTD/sodipodi-0.dtd"
   xmlns="http://www.w3.org/2000/svg"
   xmlns:svg="http://www.w3.org/2000/svg">
  <sodipodi:namedview
     id="namedview7"
     pagecolor="#ffffff"
     bordercolor="#666666"
     borderopacity="1.0"
     inkscape:pageshadow="2"
     inkscape:pageopacity="0.0"
     inkscape:pagecheckerboard="0"
     inkscape:document-units="mm"
     showgrid="false"
     units="px"
     inkscape:zoom="0.071713665"
     inkscape:cx="2530.8984"
     inkscape:cy="3911.3884"
     inkscape:window-width="1920"
     inkscape:window-height="1080"
     inkscape:window-x="0"
     inkscape:window-y="0"
     inkscape:window-maximized="1"
     inkscape:current-layer="layer1" />
  <defs
     id="defs2">
    <linearGradient
       x1="0"
       y1="0"
       x2="1"
       y2="0"
       gradientUnits="userSpaceOnUse"
       gradientTransform="matrix(-93.621033,-93.621033,-93.621033,93.621033,185.72095,437.20526)"
       spreadMethod="pad"
       id="linearGradient86">
      <stop
         style="stop-opacity:1;stop-color:#fc27a5"
         offset="0"
         id="stop82" />
      <stop
         style="stop-opacity:1;stop-color:#8e39a0"
         offset="1"
         id="stop84" />
    </linearGradient>
    <linearGradient
       x1="0"
       y1="0"
       x2="1"
       y2="0"
       gradientUnits="userSpaceOnUse"
       gradientTransform="matrix(-93.621033,-93.621033,-93.621033,93.621033,180.71497,442.21124)"
       spreadMethod="pad"
       id="linearGradient66">
      <stop
         style="stop-opacity:1;stop-color:#fc27a5"
         offset="0"
         id="stop62" />
      <stop
         style="stop-opacity:1;stop-color:#8e39a0"
         offset="1"
         id="stop64" />
    </linearGradient>
    <linearGradient
       x1="0"
       y1="0"
       x2="1"
       y2="0"
       gradientUnits="userSpaceOnUse"
       gradientTransform="matrix(-93.621033,-93.621033,-93.621033,93.621033,198.142,424.13171)"
       spreadMethod="pad"
       id="linearGradient46">
      <stop
         style="stop-opacity:1;stop-color:#fc27a5"
         offset="0"
         id="stop42" />
      <stop
         style="stop-opacity:1;stop-color:#8e39a0"
         offset="1"
         id="stop44" />
    </linearGradient>
  </defs>
  <g
     inkscape:label="Layer 1"
     inkscape:groupmode="layer"
     id="layer1">
    <circle
       style="fill:#f2f2f2;stroke-width:0.0664475"
       id="path31"
       cx="16.933332"
       cy="16.933332"
       r="16.933332" />
    <circle
       style="fill:#333333;stroke-width:0.0469151"
       id="path54"
       cx="16.933332"
       cy="16.933332"
       r="16.668751" />
    <g
       id="g30"
       transform="matrix(0.18350217,0,0,-0.18586754,-7.8067962,88.18591)">
      <g
         id="g32">
        <g
           id="g38">
          <g
             id="g40">
            <path
               d="m 113.049,400.978 c -5.522,0 -10,-4.478 -10,-10.001 v 0 c 0,-5.522 4.478,-10 10,-10 v 0 h 43.546 c 8.272,0 15,-6.728 15,-14.999 v 0 c 0,-8.271 -6.728,-15 -15,-15 v 0 H 88.049 c -5.523,0 -10,-4.477 -10,-10 v 0 c 0,-5.524 4.477,-10 10,-10 v 0 h 68.546 c 19.298,0 35,15.701 35,35 v 0 c 0,19.298 -15.702,35 -35,35 v 0 z"
               style="fill:url(#linearGradient46);stroke:none"
               id="path48" />
          </g>
        </g>
      </g>
    </g>
    <g
       id="g50"
       transform="matrix(0.18350217,0,0,-0.18586754,-7.8067962,88.18591)">
      <g
         id="g52">
        <g
           id="g58">
          <g
             id="g60">
            <path
               d="m 113.049,426.152 c -19.299,0 -35,-15.702 -35,-35 v 0 c 0,-19.299 15.701,-35 35,-35 v 0 h 43.546 c 5.522,0 9.999,4.477 9.999,9.999 v 0 c 0,5.524 -4.477,10 -9.999,10 v 0 h -43.546 c -8.272,0 -15,6.73 -15,15.001 v 0 c 0,8.271 6.728,15 15,15 v 0 h 43.124 c 5.522,0 9.999,4.477 9.999,10 v 0 c 0,5.523 -4.477,10 -9.999,10 v 0 z"
               style="fill:url(#linearGradient66);stroke:none"
               id="path68" />
          </g>
        </g>
      </g>
    </g>
    <g
       id="g70"
       transform="matrix(0.18350217,0,0,-0.18586754,-7.8067962,88.18591)">
      <g
         id="g72">
        <g
           id="g78">
          <g
             id="g80">
            <path
               d="m 171.595,433.079 c 0,-5.523 4.477,-10 10,-10 v 0 c 5.523,0 10,4.477 10,10 v 0 c 0,5.523 -4.477,10 -10,10 v 0 c -5.523,0 -10,-4.477 -10,-10"
               style="fill:url(#linearGradient86);stroke:none"
               id="path88" />
          </g>
        </g>
      </g>
    </g>
  </g>
</svg>
